<svg width="890" height="274" viewBox="0 0 890 274" fill="none" xmlns="http://www.w3.org/2000/svg">
<path d="M349.224 209.152H325.781L378.457 62.7721H403.974L456.65 209.152H433.207L391.823 89.3606H390.679L349.224 209.152ZM353.155 151.829H429.204V170.413H353.155V151.829ZM511.557 211.368C500.741 211.368 491.425 209.057 483.61 204.435C475.844 199.765 469.84 193.213 465.599 184.779C461.406 176.297 459.309 166.362 459.309 154.974C459.309 143.729 461.406 133.818 465.599 125.241C469.84 116.664 475.748 109.969 483.325 105.157C490.949 100.344 499.859 97.9376 510.056 97.9376C516.25 97.9376 522.254 98.9621 528.068 101.011C533.881 103.06 539.098 106.276 543.721 110.66C548.343 115.044 551.988 120.738 554.656 127.742C557.324 134.699 558.659 143.157 558.659 153.116V160.692H471.388V144.682H537.717C537.717 139.059 536.573 134.08 534.286 129.744C531.999 125.36 528.782 121.905 524.637 119.38C520.539 116.854 515.726 115.592 510.199 115.592C504.195 115.592 498.954 117.069 494.475 120.023C490.043 122.93 486.612 126.742 484.182 131.459C481.8 136.129 480.609 141.203 480.609 146.683V159.191C480.609 166.529 481.895 172.771 484.468 177.918C487.089 183.064 490.734 186.995 495.404 189.711C500.073 192.379 505.529 193.713 511.771 193.713C515.822 193.713 519.514 193.142 522.85 191.998C526.185 190.807 529.068 189.044 531.498 186.709C533.929 184.374 535.787 181.491 537.073 178.06L557.301 181.706C555.681 187.662 552.774 192.88 548.581 197.359C544.435 201.79 539.218 205.245 532.928 207.722C526.686 210.152 519.562 211.368 511.557 211.368ZM618.336 252.608C609.616 252.608 602.112 251.465 595.822 249.178C589.58 246.89 584.481 243.865 580.526 240.1C576.571 236.336 573.617 232.214 571.663 227.735L590.032 220.159C591.319 222.256 593.034 224.471 595.179 226.806C597.37 229.189 600.325 231.214 604.041 232.881C607.806 234.549 612.642 235.383 618.551 235.383C626.651 235.383 633.346 233.406 638.635 229.451C643.924 225.543 646.569 219.301 646.569 210.724V189.139H645.211C643.924 191.474 642.066 194.071 639.636 196.93C637.253 199.789 633.965 202.266 629.772 204.363C625.579 206.46 620.123 207.508 613.405 207.508C604.732 207.508 596.918 205.483 589.961 201.433C583.052 197.335 577.572 191.307 573.522 183.35C569.519 175.344 567.518 165.505 567.518 153.831C567.518 142.156 569.495 132.15 573.45 123.811C577.453 115.473 582.933 109.088 589.889 104.656C596.846 100.177 604.732 97.9376 613.547 97.9376C620.361 97.9376 625.865 99.0812 630.058 101.368C634.251 103.608 637.515 106.229 639.85 109.231C642.233 112.232 644.067 114.877 645.354 117.164H646.926V99.3671H667.868V211.582C667.868 221.017 665.676 228.76 661.292 234.811C656.909 240.863 650.976 245.342 643.495 248.248C636.062 251.155 627.676 252.608 618.336 252.608ZM618.122 189.782C624.269 189.782 629.462 188.353 633.703 185.494C637.992 182.587 641.232 178.442 643.424 173.057C645.663 167.625 646.783 161.121 646.783 153.545C646.783 146.159 645.687 139.655 643.495 134.032C641.303 128.41 638.087 124.026 633.846 120.881C629.605 117.688 624.364 116.092 618.122 116.092C611.689 116.092 606.329 117.76 602.04 121.095C597.752 124.383 594.511 128.862 592.32 134.533C590.175 140.203 589.103 146.54 589.103 153.545C589.103 160.74 590.199 167.053 592.391 172.485C594.583 177.918 597.823 182.158 602.112 185.208C606.448 188.257 611.784 189.782 618.122 189.782ZM756.01 163.623V99.3671H777.453V209.152H756.439V190.14H755.296C752.77 196.001 748.72 200.885 743.145 204.792C737.618 208.652 730.732 210.581 722.489 210.581C715.437 210.581 709.195 209.033 703.763 205.936C698.378 202.791 694.137 198.145 691.04 191.998C687.991 185.851 686.466 178.251 686.466 169.198V99.3671H707.837V166.625C707.837 174.106 709.909 180.062 714.055 184.493C718.2 188.925 723.585 191.14 730.208 191.14C734.211 191.14 738.189 190.14 742.144 188.138C746.147 186.137 749.459 183.111 752.079 179.061C754.748 175.011 756.058 169.865 756.01 163.623ZM878.371 126.17L859.002 129.601C858.191 127.123 856.905 124.764 855.142 122.525C853.427 120.285 851.092 118.451 848.137 117.021C845.183 115.592 841.49 114.877 837.059 114.877C831.007 114.877 825.956 116.235 821.906 118.951C817.856 121.619 815.831 125.074 815.831 129.315C815.831 132.984 817.189 135.938 819.905 138.178C822.621 140.417 827.005 142.252 833.056 143.681L850.496 147.684C860.598 150.019 868.126 153.616 873.082 158.476C878.038 163.337 880.515 169.65 880.515 177.417C880.515 183.993 878.609 189.854 874.797 195C871.033 200.098 865.768 204.101 859.002 207.008C852.283 209.914 844.492 211.368 835.629 211.368C823.336 211.368 813.306 208.747 805.539 203.505C797.772 198.216 793.007 190.711 791.244 180.991L811.9 177.846C813.186 183.23 815.831 187.304 819.834 190.068C823.836 192.784 829.054 194.142 835.486 194.142C842.491 194.142 848.09 192.689 852.283 189.782C856.476 186.828 858.573 183.23 858.573 178.99C858.573 175.559 857.286 172.676 854.713 170.341C852.188 168.006 848.304 166.243 843.063 165.052L824.479 160.978C814.235 158.643 806.658 154.927 801.75 149.828C796.89 144.73 794.46 138.273 794.46 130.458C794.46 123.978 796.271 118.308 799.892 113.448C803.513 108.587 808.517 104.799 814.902 102.083C821.287 99.3194 828.601 97.9376 836.844 97.9376C848.709 97.9376 858.049 100.511 864.862 105.657C871.676 110.755 876.179 117.593 878.371 126.17Z" fill="white"/>
<mask id="mask0_81_119" style="mask-type:alpha" maskUnits="userSpaceOnUse" x="35" y="22" width="204" height="229">
<mask id="mask1_81_119" style="mask-type:luminance" maskUnits="userSpaceOnUse" x="0" y="0" width="274" height="274">
<path d="M267.904 5.7002V267.904H5.7002V5.7002H267.904Z" fill="white" stroke="white" stroke-width="11.4002"/>
</mask>
<g mask="url(#mask1_81_119)">
<path d="M117.809 35.1621C129.986 30.1964 143.738 30.1989 155.915 35.167V35.166L219.405 61.1553L219.415 61.1592C221.852 62.1534 224.58 64.4065 226.731 67.5908C228.749 70.5776 229.804 73.7081 229.928 76.2305L229.94 76.7266L229.826 126.754C229.826 126.76 229.826 126.767 229.826 126.773C229.826 178.529 192.069 227.462 140.365 241.761C138.219 242.346 135.843 242.382 133.668 241.87L133.236 241.761C81.5316 227.462 43.7744 178.529 43.7744 126.773V76.7266C43.7744 74.0953 44.8241 70.7398 46.9521 67.5742C49.0787 64.4109 51.7902 62.17 54.2646 61.1738C54.2797 61.1678 54.2946 61.1614 54.3096 61.1553L117.81 35.1631L117.809 35.1621Z" fill="black" stroke="url(#paint0_linear_81_119)" stroke-width="17.1003" stroke-linecap="round" stroke-linejoin="round"/>
</g>
</mask>
<g mask="url(#mask0_81_119)">
<circle cx="136.437" cy="254.278" r="120.16" stroke="white" stroke-width="33.9382"/>
<circle cx="136.439" cy="254.277" r="167.077" stroke="white" stroke-width="33.9382"/>
<circle cx="136.438" cy="254.278" r="214.376" stroke="white" stroke-width="33.9382"/>
<circle cx="136.501" cy="254.341" r="74.45" stroke="white" stroke-width="33.9382"/>
<mask id="path-8-inside-1_81_119" fill="white">
<ellipse cx="136.438" cy="298.679" rx="60.8059" ry="93.0471"/>
</mask>
<path d="M197.244 298.679H77.3287C77.3287 304.477 75.5687 304.206 79.0527 298.875C81.8372 294.614 99.5321 271.812 136.438 271.812V391.727V511.641C206.925 511.641 255.023 468.01 279.815 430.072C305.306 391.065 317.158 344.271 317.158 298.679H197.244ZM136.438 391.727V271.812C173.343 271.812 191.038 294.614 193.823 298.875C197.307 304.206 195.547 304.477 195.547 298.679H75.6318H-44.283C-44.283 344.271 -32.4311 391.065 -6.93971 430.072C17.8521 468.01 65.95 511.641 136.438 511.641V391.727ZM75.6318 298.679H195.547C195.547 292.882 197.307 293.152 193.823 298.484C191.038 302.745 173.343 325.547 136.438 325.547V205.632V85.7175C65.95 85.7175 17.8521 129.349 -6.93971 167.287C-32.4311 206.294 -44.283 253.088 -44.283 298.679H75.6318ZM136.438 205.632V325.547C99.5321 325.547 81.8372 302.745 79.0527 298.484C75.5687 293.152 77.3287 292.882 77.3287 298.679H197.244H317.158C317.158 253.088 305.306 206.294 279.815 167.287C255.023 129.349 206.925 85.7175 136.438 85.7175V205.632Z" fill="white" mask="url(#path-8-inside-1_81_119)"/>
</g>
<defs>
<linearGradient id="paint0_linear_81_119" x1="136.857" y1="22.8896" x2="136.857" y2="250.779" gradientUnits="userSpaceOnUse">
<stop stop-color="#001578"/>
<stop offset="0.201922" stop-color="#2F7CF6"/>
</linearGradient>
</defs>
</svg>
