<svg width="116" height="43" viewBox="0 0 116 43" fill="none" xmlns="http://www.w3.org/2000/svg">
<mask id="mask0_124_2967" style="mask-type:alpha" maskUnits="userSpaceOnUse" x="5" y="3" width="33" height="37">
<mask id="mask1_124_2967" style="mask-type:luminance" maskUnits="userSpaceOnUse" x="0" y="0" width="43" height="43">
<path d="M43 0H0V43H43V0Z" fill="white"/>
</mask>
<g mask="url(#mask1_124_2967)">
<path d="M37.4627 19.9238C37.4627 28.6851 31.1023 36.8909 22.4127 39.2918C21.8215 39.453 21.1765 39.453 20.5852 39.2918C11.8956 36.8909 5.53516 28.6851 5.53516 19.9238V12.0584C5.53516 10.5892 6.64601 8.92297 8.02559 8.36755L18.0052 4.2826C20.2448 3.36885 22.771 3.36885 25.0106 4.2826L34.9902 8.36755C36.3519 8.92297 37.4806 10.5892 37.4806 12.0584L37.4627 19.9238Z" fill="black"/>
</g>
</mask>
<g mask="url(#mask0_124_2967)">
<circle cx="21.4419" cy="39.9628" r="18.8844" stroke="url(#paint0_linear_124_2967)" stroke-width="5.33376"/>
<circle cx="21.4415" cy="39.9623" r="26.2581" stroke="url(#paint1_linear_124_2967)" stroke-width="5.33376"/>
<circle cx="21.4425" cy="39.9624" r="33.6916" stroke="url(#paint2_linear_124_2967)" stroke-width="5.33376"/>
<circle cx="21.4515" cy="39.9724" r="11.7007" stroke="url(#paint3_linear_124_2967)" stroke-width="5.33376"/>
<mask id="path-7-inside-1_124_2967" fill="white">
<ellipse cx="21.4421" cy="46.9408" rx="9.55633" ry="14.6234"/>
</mask>
<path d="M30.9984 46.9408H12.1524C12.1524 47.8519 11.8758 47.8094 12.4234 46.9715C12.861 46.3019 15.6419 42.7182 21.4421 42.7182V61.5642V80.4102C32.52 80.4102 40.0791 73.5529 43.9755 67.5907C47.9817 61.4601 49.8444 54.106 49.8444 46.9408H30.9984ZM21.4421 61.5642V42.7182C27.2422 42.7182 30.0232 46.3019 30.4608 46.9715C31.0083 47.8094 30.7317 47.8519 30.7317 46.9408H11.8857H-6.96023C-6.96023 54.106 -5.09757 61.4601 -1.09131 67.5907C2.805 73.5529 10.3641 80.4102 21.4421 80.4102V61.5642ZM11.8857 46.9408H30.7317C30.7317 46.0297 31.0083 46.0722 30.4608 46.91C30.0232 47.5797 27.2422 51.1634 21.4421 51.1634V32.3174V13.4714C10.3641 13.4714 2.805 20.3286 -1.09131 26.2909C-5.09757 32.4214 -6.96023 39.7756 -6.96023 46.9408H11.8857ZM21.4421 32.3174V51.1634C15.6419 51.1634 12.861 47.5797 12.4234 46.91C11.8758 46.0722 12.1524 46.0297 12.1524 46.9408H30.9984H49.8444C49.8444 39.7756 47.9817 32.4214 43.9755 26.2909C40.0791 20.3286 32.52 13.4714 21.4421 13.4714V32.3174Z" fill="url(#paint4_linear_124_2967)" mask="url(#path-7-inside-1_124_2967)"/>
</g>
<path d="M47.5654 28H44.6271L51.2294 9.65331H54.4275L61.0298 28H58.0915L52.9046 12.9858H52.7613L47.5654 28ZM48.0581 20.8154H57.5898V23.1446H48.0581V20.8154ZM67.9116 28.2777C66.5559 28.2777 65.3883 27.9881 64.4089 27.4087C63.4354 26.8235 62.6829 26.0023 62.1514 24.9452C61.6258 23.8821 61.3631 22.6369 61.3631 21.2096C61.3631 19.8001 61.6258 18.5579 62.1514 17.4829C62.6829 16.4079 63.4235 15.5688 64.3731 14.9656C65.3286 14.3624 66.4454 14.0608 67.7235 14.0608C68.4999 14.0608 69.2524 14.1892 69.981 14.446C70.7096 14.7028 71.3636 15.106 71.9429 15.6554C72.5222 16.2048 72.979 16.9185 73.3135 17.7964C73.6479 18.6684 73.8152 19.7285 73.8152 20.9767V21.9262H62.877V19.9196H71.1904C71.1904 19.2149 71.047 18.5908 70.7604 18.0473C70.4737 17.4978 70.0706 17.0648 69.551 16.7483C69.0374 16.4318 68.4342 16.2735 67.7414 16.2735C66.9889 16.2735 66.332 16.4587 65.7706 16.8289C65.2151 17.1933 64.7851 17.671 64.4806 18.2623C64.182 18.8476 64.0326 19.4836 64.0326 20.1704V21.7381C64.0326 22.6578 64.1939 23.4402 64.5164 24.0852C64.8449 24.7302 65.3017 25.2229 65.887 25.5633C66.4723 25.8978 67.1561 26.065 67.9385 26.065C68.4461 26.065 68.909 25.9933 69.327 25.85C69.7451 25.7007 70.1064 25.4797 70.411 25.1871C70.7156 24.8944 70.9485 24.5331 71.1097 24.1031L73.645 24.56C73.4419 25.3065 73.0776 25.9605 72.552 26.5219C72.0324 27.0773 71.3785 27.5103 70.5902 27.8208C69.8078 28.1254 68.9149 28.2777 67.9116 28.2777ZM81.2949 33.4467C80.202 33.4467 79.2614 33.3033 78.4731 33.0167C77.6907 32.73 77.0517 32.3508 76.556 31.879C76.0603 31.4072 75.69 30.8906 75.4451 30.3292L77.7474 29.3796C77.9087 29.6424 78.1237 29.9201 78.3924 30.2127C78.6671 30.5113 79.0374 30.7651 79.5033 30.9742C79.9751 31.1832 80.5812 31.2877 81.3218 31.2877C82.3371 31.2877 83.1762 31.0399 83.8391 30.5442C84.502 30.0544 84.8335 29.2721 84.8335 28.1971V25.4917H84.6633C84.502 25.7843 84.2691 26.1098 83.9645 26.4681C83.6659 26.8265 83.2538 27.137 82.7283 27.3998C82.2027 27.6626 81.5189 27.794 80.6768 27.794C79.5899 27.794 78.6104 27.5401 77.7385 27.0325C76.8725 26.5189 76.1857 25.7634 75.678 24.766C75.1764 23.7627 74.9255 22.5294 74.9255 21.0662C74.9255 19.603 75.1734 18.3489 75.6691 17.3037C76.1708 16.2586 76.8576 15.4583 77.7295 14.9029C78.6015 14.3415 79.5899 14.0608 80.6947 14.0608C81.5487 14.0608 82.2385 14.2042 82.7641 14.4908C83.2897 14.7715 83.6988 15.1 83.9914 15.4762C84.29 15.8525 84.5199 16.1839 84.6812 16.4706H84.8783V14.24H87.5031V28.3046C87.5031 29.4871 87.2283 30.4576 86.6789 31.216C86.1294 31.9745 85.3859 32.5359 84.4483 32.9002C83.5166 33.2645 82.4655 33.4467 81.2949 33.4467ZM81.2681 25.5723C82.0385 25.5723 82.6894 25.3931 83.221 25.0348C83.7585 24.6705 84.1646 24.1509 84.4393 23.476C84.72 22.7952 84.8603 21.98 84.8603 21.0304C84.8603 20.1047 84.723 19.2895 84.4483 18.5848C84.1735 17.8801 83.7704 17.3306 83.2389 16.9364C82.7074 16.5363 82.0504 16.3362 81.2681 16.3362C80.4618 16.3362 79.7899 16.5453 79.2524 16.9633C78.7149 17.3754 78.3088 17.9368 78.0341 18.6475C77.7653 19.3582 77.631 20.1525 77.631 21.0304C77.631 21.9322 77.7683 22.7235 78.0431 23.4044C78.3178 24.0852 78.7239 24.6167 79.2614 24.999C79.8049 25.3812 80.4737 25.5723 81.2681 25.5723ZM98.5505 22.2935V14.24H101.238V28H98.6042V25.6171H98.4609C98.1444 26.3517 97.6367 26.9638 96.938 27.4535C96.2452 27.9373 95.3822 28.1792 94.349 28.1792C93.4651 28.1792 92.6828 27.9851 92.0019 27.5969C91.3271 27.2027 90.7955 26.6204 90.4074 25.85C90.0251 25.0796 89.834 24.127 89.834 22.9923V14.24H92.5126V22.6698C92.5126 23.6074 92.7724 24.354 93.2919 24.9094C93.8115 25.4648 94.4864 25.7425 95.3165 25.7425C95.8182 25.7425 96.3169 25.6171 96.8126 25.3662C97.3142 25.1154 97.7293 24.7362 98.0578 24.2285C98.3922 23.7209 98.5565 23.0759 98.5505 22.2935ZM113.887 17.5994L111.459 18.0294C111.357 17.7188 111.196 17.4232 110.975 17.1425C110.76 16.8618 110.468 16.6319 110.097 16.4527C109.727 16.2735 109.264 16.1839 108.709 16.1839C107.95 16.1839 107.317 16.3542 106.81 16.6946C106.302 17.029 106.048 17.462 106.048 17.9935C106.048 18.4534 106.218 18.8237 106.559 19.1044C106.899 19.3851 107.449 19.615 108.207 19.7942L110.393 20.2958C111.659 20.5885 112.603 21.0394 113.224 21.6485C113.845 22.2577 114.155 23.049 114.155 24.0225C114.155 24.8467 113.917 25.5812 113.439 26.2262C112.967 26.8653 112.307 27.3669 111.459 27.7312C110.617 28.0956 109.64 28.2777 108.53 28.2777C106.989 28.2777 105.732 27.9492 104.758 27.2923C103.785 26.6294 103.187 25.6887 102.967 24.4704L105.555 24.0762C105.717 24.7511 106.048 25.2617 106.55 25.6081C107.052 25.9485 107.705 26.1187 108.512 26.1187C109.39 26.1187 110.091 25.9366 110.617 25.5723C111.142 25.202 111.405 24.7511 111.405 24.2196C111.405 23.7896 111.244 23.4283 110.922 23.1356C110.605 22.843 110.118 22.622 109.461 22.4727L107.132 21.9621C105.848 21.6694 104.899 21.2036 104.283 20.5646C103.674 19.9255 103.37 19.1163 103.37 18.1369C103.37 17.3246 103.597 16.6139 104.05 16.0048C104.504 15.3956 105.131 14.9208 105.932 14.5804C106.732 14.234 107.649 14.0608 108.682 14.0608C110.169 14.0608 111.34 14.3833 112.194 15.0283C113.048 15.6673 113.612 16.5244 113.887 17.5994Z" fill="url(#paint5_linear_124_2967)"/>
<defs>
<linearGradient id="paint0_linear_124_2967" x1="21.4419" y1="18.4115" x2="21.4419" y2="61.5141" gradientUnits="userSpaceOnUse">
<stop stop-color="#001578"/>
<stop offset="1" stop-color="#2F7CF6"/>
</linearGradient>
<linearGradient id="paint1_linear_124_2967" x1="21.4415" y1="11.0374" x2="21.4415" y2="68.8872" gradientUnits="userSpaceOnUse">
<stop stop-color="#001578"/>
<stop offset="1" stop-color="#2F7CF6"/>
</linearGradient>
<linearGradient id="paint2_linear_124_2967" x1="21.4425" y1="3.60388" x2="21.4425" y2="76.3209" gradientUnits="userSpaceOnUse">
<stop stop-color="#001578"/>
<stop offset="1" stop-color="#2F7CF6"/>
</linearGradient>
<linearGradient id="paint3_linear_124_2967" x1="21.4515" y1="25.6049" x2="21.4515" y2="54.34" gradientUnits="userSpaceOnUse">
<stop stop-color="#001578"/>
<stop offset="1" stop-color="#2F7CF6"/>
</linearGradient>
<linearGradient id="paint4_linear_124_2967" x1="21.4421" y1="32.3174" x2="21.4421" y2="61.5642" gradientUnits="userSpaceOnUse">
<stop stop-color="#001578"/>
<stop offset="1" stop-color="#2F7CF6"/>
</linearGradient>
<linearGradient id="paint5_linear_124_2967" x1="80" y1="3" x2="80" y2="34" gradientUnits="userSpaceOnUse">
<stop stop-color="#001578"/>
<stop offset="1" stop-color="#2F7CF6"/>
</linearGradient>
</defs>
</svg>
